<svg id="Warstwa_1" data-name="Warstwa 1" xmlns="http://www.w3.org/2000/svg" width="319.48" height="212.4" viewBox="0 0 319.48 212.4">
  <defs>
    <style>
      .cls-1, .cls-2 {
        fill: none;
        stroke: #000;
        stroke-width: 7px;
      }

      .cls-1 {
        stroke-miterlimit: 10;
      }

      .cls-2 {
        stroke-linecap: round;
        stroke-linejoin: round;
      }
    </style>
  </defs>
  <g>
    <g>
      <path d="M417.75,347.28h17.66v7.44H430.3v25.15h-7.49V354.72h-5.06Z" transform="translate(-351.51 -168.28)"/>
      <path d="M439.21,345.47h7.08v14.84h.13q2.61-3.63,6-3.63a4.69,4.69,0,0,1,3.79,1.6,6.7,6.7,0,0,1,1.36,4.5v17.09h-7.11v-13.7a3.55,3.55,0,0,0-.52-2.06,1.7,1.7,0,0,0-1.45-.74c-1.48,0-2.23,1-2.23,3v13.5h-7.08Z" transform="translate(-351.51 -168.28)"/>
      <path d="M473.37,373h6q-1.71,7.58-8.54,7.57a8.07,8.07,0,0,1-6.77-3.25q-2.49-3.24-2.49-9a13.54,13.54,0,0,1,2.49-8.53,8,8,0,0,1,6.62-3.21,8.47,8.47,0,0,1,4.79,1.55,8.91,8.91,0,0,1,3.34,4.11,24.3,24.3,0,0,1,1.17,8.08H468.12q.15,5,2.78,5a2.32,2.32,0,0,0,1.62-.66A2.8,2.8,0,0,0,473.37,373Zm-5.15-6.49h5.15a8.64,8.64,0,0,0-.66-3.51,2,2,0,0,0-1.85-1.13,2.12,2.12,0,0,0-2,1.1A7.61,7.61,0,0,0,468.22,366.52Z" transform="translate(-351.51 -168.28)"/>
      <path d="M514.26,372.18v7.74a14,14,0,0,1-4.2.76,12.86,12.86,0,0,1-10.41-4.83q-4-4.82-4-12.68a18,18,0,0,1,4-12.05,12.79,12.79,0,0,1,10.18-4.75,14.55,14.55,0,0,1,4.39.64v7.76a12.71,12.71,0,0,0-4-.71,5.72,5.72,0,0,0-4.79,2.64,13.16,13.16,0,0,0,0,13.66,6.06,6.06,0,0,0,5.11,2.55A11.31,11.31,0,0,0,514.26,372.18Z" transform="translate(-351.51 -168.28)"/>
      <path d="M518.46,345.47h7.11v34.4h-7.11Z" transform="translate(-351.51 -168.28)"/>
      <path d="M539.61,356.63a8.85,8.85,0,0,1,7.39,3.23c1.7,2.16,2.54,5.16,2.54,9s-.88,6.67-2.63,8.73a9.1,9.1,0,0,1-7.3,3.09,8.76,8.76,0,0,1-7.1-3.15q-2.62-3.15-2.62-8.67,0-5.76,2.5-9A8.59,8.59,0,0,1,539.61,356.63Zm0,17.7a2.23,2.23,0,0,0,2.09-1.3,9.91,9.91,0,0,0,.7-4.41,9.72,9.72,0,0,0-.69-4.35,2.2,2.2,0,0,0-2-1.25,2.26,2.26,0,0,0-2.05,1.21,9.66,9.66,0,0,0-.71,4.43C536.94,372.44,537.85,374.33,539.65,374.33Z" transform="translate(-351.51 -168.28)"/>
      <path d="M554.55,372.62q3.63,2.14,5.25,2.15a2.33,2.33,0,0,0,1.46-.45,1.35,1.35,0,0,0,.59-1.09,1.11,1.11,0,0,0-.49-1q-.5-.32-3.66-1.71a8.87,8.87,0,0,1-3.67-2.65,6.29,6.29,0,0,1-1.12-3.8,7,7,0,0,1,2.24-5.34,8,8,0,0,1,5.7-2.1q3.36,0,8.25,2.68l-2.74,5.06a10.77,10.77,0,0,0-5.2-2c-1.17,0-1.75.48-1.75,1.42a1.44,1.44,0,0,0,.64,1.18,9.13,9.13,0,0,0,2.36,1.12,11.44,11.44,0,0,1,4.65,2.68,5.57,5.57,0,0,1,1.45,4,7.42,7.42,0,0,1-2.29,5.61,8.12,8.12,0,0,1-5.86,2.2,15.85,15.85,0,0,1-8.25-2.71Z" transform="translate(-351.51 -168.28)"/>
      <path d="M583.4,373h6q-1.71,7.58-8.55,7.57a8.05,8.05,0,0,1-6.76-3.25q-2.49-3.24-2.49-9a13.54,13.54,0,0,1,2.49-8.53,8,8,0,0,1,6.61-3.21,8.47,8.47,0,0,1,4.79,1.55,8.91,8.91,0,0,1,3.34,4.11,24.51,24.51,0,0,1,1.18,8.08H578.16q.14,5,2.78,5a2.3,2.3,0,0,0,1.61-.66A2.75,2.75,0,0,0,583.4,373Zm-5.15-6.49h5.15a8.5,8.5,0,0,0-.65-3.51,2,2,0,0,0-1.86-1.13,2.13,2.13,0,0,0-2,1.1A7.74,7.74,0,0,0,578.25,366.52Z" transform="translate(-351.51 -168.28)"/>
      <path d="M595,351.43h7.1v6h2.76v5.91h-2.81v16.55H595v-16.6h-2.69v-5.86H595Z" transform="translate(-351.51 -168.28)"/>
    </g>
    <g id="wieszak">
      <line class="cls-1" x1="71.42" y1="202.78" x2="69.33" y2="202.78"/>
      <line class="cls-1" x1="75.16" y1="202.78" x2="71.42" y2="202.78"/>
      <path class="cls-1" d="M426.67,371.06" transform="translate(-351.51 -168.28)"/>
      <path class="cls-1" d="M420.84,371.06h-34c-17.56,0-31.79-6.31-31.79-23.87v-.08a31.79,31.79,0,0,1,10.59-23.69L483.89,269h59L656.8,323.42a31.76,31.76,0,0,1,10.69,23.77h0c0,17.56-14.23,23.87-31.79,23.87h-34" transform="translate(-351.51 -168.28)"/>
      <path class="cls-2" d="M478.85,204.18a32.4,32.4,0,1,1,32.4,32.4" transform="translate(-351.51 -168.28)"/>
      <path class="cls-1" d="M511.25,268.26" transform="translate(-351.51 -168.28)"/>
      <line class="cls-1" x1="159.74" y1="99.98" x2="159.74" y2="68.3"/>
    </g>
  </g>
</svg>
